<svg width="105" height="24" viewBox="0 0 105 24" fill="none" xmlns="http://www.w3.org/2000/svg">
<path d="M41.6216 15.9174C41.6216 15.6361 41.5781 15.385 41.491 15.164C41.4107 14.9363 41.26 14.7321 41.039 14.5513C40.8248 14.3638 40.5201 14.183 40.125 14.0089C39.7366 13.8281 39.2343 13.6406 38.6183 13.4464C37.9352 13.2321 37.2991 12.991 36.7098 12.7232C36.1205 12.4553 35.6015 12.1439 35.1529 11.789C34.7109 11.4341 34.366 11.0256 34.1183 10.5636C33.8705 10.0948 33.7466 9.55242 33.7466 8.93635C33.7466 8.33367 33.8739 7.78456 34.1283 7.28903C34.3895 6.79349 34.7578 6.36827 35.2332 6.01336C35.7087 5.65175 36.2678 5.37385 36.9107 5.17965C37.5602 4.98546 38.2768 4.88836 39.0602 4.88836C40.1451 4.88836 41.0826 5.0859 41.8727 5.48099C42.6696 5.87608 43.2857 6.4118 43.721 7.08813C44.1562 7.76447 44.3739 8.52452 44.3739 9.36827H41.6216C41.6216 8.91291 41.5245 8.51113 41.3303 8.16291C41.1428 7.8147 40.8549 7.54014 40.4665 7.33925C40.0848 7.13836 39.6027 7.03791 39.0201 7.03791C38.4576 7.03791 37.9888 7.12162 37.6138 7.28903C37.2455 7.45644 36.9676 7.68412 36.7801 7.97206C36.5993 8.26001 36.5089 8.58144 36.5089 8.93635C36.5089 9.20421 36.5725 9.44528 36.6998 9.65956C36.827 9.86715 37.0178 10.0647 37.2723 10.2522C37.5268 10.433 37.8415 10.6038 38.2165 10.7645C38.5982 10.9185 39.0402 11.0725 39.5424 11.2265C40.346 11.4676 41.0491 11.7355 41.6518 12.0301C42.2611 12.3247 42.7667 12.6596 43.1685 13.0346C43.577 13.4096 43.8817 13.8314 44.0826 14.3002C44.2902 14.7689 44.3939 15.3013 44.3939 15.8973C44.3939 16.5268 44.2701 17.0893 44.0223 17.5848C43.7745 18.0803 43.4196 18.5022 42.9576 18.8504C42.4955 19.1986 41.9397 19.4631 41.2902 19.6439C40.6473 19.8247 39.9274 19.9151 39.1306 19.9151C38.4207 19.9151 37.7176 19.8214 37.0212 19.6339C36.3314 19.4397 35.7053 19.1518 35.1428 18.7701C34.5803 18.3817 34.1317 17.8928 33.7968 17.3035C33.462 16.7076 33.2946 16.0111 33.2946 15.2143H36.0669C36.0669 15.6763 36.1406 16.0714 36.2879 16.3995C36.4419 16.7209 36.6562 16.9855 36.9308 17.193C37.212 17.3939 37.5402 17.5413 37.9152 17.635C38.2902 17.7288 38.6953 17.7756 39.1306 17.7756C39.6931 17.7756 40.1551 17.6986 40.5167 17.5446C40.885 17.3839 41.1596 17.1629 41.3404 16.8817C41.5279 16.6004 41.6216 16.279 41.6216 15.9174Z" fill="#2F2175"/>
<path d="M48.9643 11.0759V19.7143H46.3125V8.84595H48.8136L48.9643 11.0759ZM48.5725 13.8884H47.7589C47.7589 13.1317 47.8493 12.4352 48.0301 11.7991C48.2176 11.1629 48.4922 10.6105 48.8538 10.1417C49.2154 9.66626 49.6607 9.29796 50.1897 9.0368C50.7254 8.77563 51.3448 8.64505 52.048 8.64505C52.5368 8.64505 52.9855 8.71872 53.3939 8.86604C53.8024 9.00666 54.154 9.23099 54.4486 9.53903C54.75 9.84037 54.981 10.2355 55.1417 10.7243C55.3024 11.2064 55.3828 11.7857 55.3828 12.462V19.7143H52.731V12.7332C52.731 12.2243 52.6573 11.8259 52.51 11.5379C52.3694 11.25 52.1652 11.0491 51.8973 10.9352C51.6294 10.8147 51.308 10.7544 50.933 10.7544C50.5178 10.7544 50.1596 10.8381 49.8582 11.0055C49.5636 11.1663 49.3192 11.3906 49.125 11.6785C48.9375 11.9665 48.7968 12.298 48.7031 12.673C48.616 13.048 48.5725 13.4531 48.5725 13.8884ZM55.1819 13.3962L54.087 13.5971C54.0937 12.914 54.1875 12.2745 54.3683 11.6785C54.5491 11.0759 54.8136 10.5502 55.1618 10.1015C55.5167 9.64617 55.9553 9.29126 56.4777 9.0368C57.0067 8.77563 57.616 8.64505 58.3058 8.64505C58.8415 8.64505 59.3236 8.72206 59.7522 8.87608C60.1875 9.0234 60.5591 9.26113 60.8672 9.58925C61.1752 9.91068 61.4096 10.3292 61.5703 10.8448C61.7377 11.3605 61.8214 11.9899 61.8214 12.7332V19.7143H59.1495V12.7232C59.1495 12.1942 59.0759 11.789 58.9285 11.5078C58.7879 11.2265 58.5837 11.0323 58.3158 10.9252C58.048 10.8113 57.7332 10.7544 57.3716 10.7544C57.0033 10.7544 56.6819 10.8247 56.4073 10.9654C56.1395 11.0993 55.9118 11.2868 55.7243 11.5279C55.5435 11.7689 55.4062 12.0502 55.3125 12.3716C55.2254 12.6863 55.1819 13.0279 55.1819 13.3962Z" fill="#2F2175"/>
<path d="M70.1886 17.404V12.3917C70.1886 12.0234 70.125 11.7053 69.9977 11.4375C69.8705 11.1696 69.6763 10.962 69.4152 10.8147C69.154 10.6674 68.8225 10.5937 68.4207 10.5937C68.0658 10.5937 67.7544 10.654 67.4866 10.7745C67.2254 10.8951 67.0245 11.0658 66.8839 11.2868C66.7433 11.5011 66.673 11.7488 66.673 12.0301H64.0111C64.0111 11.5814 64.1183 11.1562 64.3326 10.7544C64.5468 10.3459 64.8515 9.98434 65.2466 9.66961C65.6484 9.34818 66.1272 9.09706 66.683 8.91626C67.2455 8.73546 67.875 8.64505 68.5714 8.64505C69.3951 8.64505 70.1283 8.78568 70.7712 9.06693C71.4207 9.34148 71.9297 9.75666 72.298 10.3125C72.673 10.8683 72.8605 11.568 72.8605 12.4118V17.1529C72.8605 17.6953 72.8939 18.1607 72.9609 18.5491C73.0346 18.9308 73.1417 19.2622 73.2823 19.5435V19.7143H70.5803C70.4531 19.4397 70.356 19.0915 70.289 18.6696C70.2221 18.241 70.1886 17.8192 70.1886 17.404ZM70.5602 13.0948L70.5803 14.6718H68.9029C68.4877 14.6718 68.1227 14.7154 67.808 14.8024C67.4933 14.8828 67.2355 15.0033 67.0346 15.164C66.8337 15.318 66.683 15.5055 66.5826 15.7265C66.4821 15.9408 66.4319 16.1852 66.4319 16.4598C66.4319 16.7276 66.4922 16.9687 66.6127 17.183C66.7399 17.3973 66.9207 17.568 67.1551 17.6953C67.3962 17.8158 67.6774 17.8761 67.9989 17.8761C68.4676 17.8761 68.8761 17.7823 69.2243 17.5948C69.5725 17.4006 69.8437 17.1663 70.0379 16.8917C70.2321 16.6172 70.3359 16.356 70.3493 16.1082L71.1127 17.2533C71.0189 17.5279 70.8783 17.8192 70.6908 18.1272C70.5033 18.4352 70.2623 18.7232 69.9676 18.991C69.673 19.2589 69.3181 19.4799 68.9029 19.654C68.4877 19.8281 68.0056 19.9151 67.4564 19.9151C66.7533 19.9151 66.1239 19.7745 65.5681 19.4933C65.0123 19.212 64.5736 18.827 64.2522 18.3381C63.9308 17.8493 63.7701 17.2935 63.7701 16.6707C63.7701 16.0948 63.8772 15.5859 64.0915 15.1439C64.3058 14.702 64.6239 14.3303 65.0457 14.029C65.4676 13.7209 65.9899 13.4899 66.6127 13.3359C67.2422 13.1752 67.962 13.0948 68.7723 13.0948H70.5602Z" fill="#2F2175"/>
<path d="M80.3939 8.84595V10.7544H74.1663V8.84595H80.3939ZM75.8337 6.17407H78.4955V16.5803C78.4955 16.9018 78.539 17.1495 78.6261 17.3236C78.7131 17.4977 78.8437 17.6149 79.0178 17.6752C79.1919 17.7355 79.3995 17.7656 79.6406 17.7656C79.8147 17.7656 79.9754 17.7555 80.1227 17.7355C80.2701 17.7154 80.3939 17.6953 80.4944 17.6752L80.5044 19.664C80.2835 19.7377 80.0323 19.798 79.7511 19.8448C79.4765 19.8917 79.1652 19.9151 78.8169 19.9151C78.221 19.9151 77.6986 19.8147 77.25 19.6138C76.8013 19.4062 76.4531 19.0747 76.2053 18.6194C75.9576 18.1573 75.8337 17.548 75.8337 16.7913V6.17407Z" fill="#2F2175"/>
<path d="M84.8136 11.0658V19.7143H82.1618V8.84595H84.673L84.8136 11.0658ZM88.1183 8.77563L88.0781 11.2466C87.9308 11.2198 87.7634 11.1997 87.5759 11.1863C87.3951 11.173 87.2243 11.1663 87.0636 11.1663C86.6551 11.1663 86.2968 11.2232 85.9888 11.337C85.6808 11.4442 85.423 11.6015 85.2154 11.8091C85.0145 12.0167 84.8605 12.2712 84.7533 12.5725C84.6462 12.8672 84.5859 13.202 84.5725 13.577L84 13.5067C84 12.8169 84.0703 12.1774 84.2109 11.5881C84.3515 10.9988 84.5558 10.4832 84.8236 10.0413C85.0915 9.5993 85.4263 9.25778 85.8281 9.01671C86.2366 8.76894 86.7053 8.64505 87.2343 8.64505C87.3817 8.64505 87.539 8.65845 87.7064 8.68523C87.8806 8.70532 88.0178 8.73546 88.1183 8.77563Z" fill="#2F2175"/>
<path d="M92.3873 8.84595V19.7143H89.7254V8.84595H92.3873ZM89.5446 6.00331C89.5446 5.60822 89.6785 5.2801 89.9464 5.01894C90.221 4.75778 90.5893 4.6272 91.0513 4.6272C91.5134 4.6272 91.8783 4.75778 92.1462 5.01894C92.4207 5.2801 92.558 5.60822 92.558 6.00331C92.558 6.39171 92.4207 6.71648 92.1462 6.97764C91.8783 7.2388 91.5134 7.36938 91.0513 7.36938C90.5893 7.36938 90.221 7.2388 89.9464 6.97764C89.6785 6.71648 89.5446 6.39171 89.5446 6.00331Z" fill="#2F2175"/>
<path d="M96.9977 8.84595L98.9364 12.3013L100.905 8.84595H103.788L100.594 14.1696L103.919 19.7143H101.036L98.9565 16.0881L96.8672 19.7143H93.9843L97.2991 14.1696L94.125 8.84595H96.9977Z" fill="#2F2175"/>
<g clip-path="url(#clip0_79_37761)">
<path d="M9.68573 0.428589H1.45716C0.889096 0.428589 0.428589 0.889096 0.428589 1.45716V9.68573C0.428589 10.2538 0.889096 10.7143 1.45716 10.7143H9.68573C10.2538 10.7143 10.7143 10.2538 10.7143 9.68573V1.45716C10.7143 0.889096 10.2538 0.428589 9.68573 0.428589Z" fill="#3DD598"/>
<path d="M1.45716 0.928589H9.68573C9.97765 0.928589 10.2143 1.16524 10.2143 1.45716V9.68573C10.2143 9.97765 9.97765 10.2143 9.68573 10.2143H1.45716C1.16524 10.2143 0.928589 9.97765 0.928589 9.68573V1.45716C0.928589 1.16524 1.16524 0.928589 1.45716 0.928589Z" stroke="#006C49" stroke-opacity="0.2"/>
<path d="M24 5.57143C24 2.49441 21.5056 0 18.4285 0C15.3515 0 12.8571 2.49441 12.8571 5.57143C12.8571 8.64844 15.3515 11.1429 18.4285 11.1429C21.5056 11.1429 24 8.64844 24 5.57143Z" fill="#50B5FF"/>
<path d="M18.4285 0.5C21.2294 0.5 23.5 2.77056 23.5 5.57143C23.5 8.3723 21.2294 10.6429 18.4285 10.6429C15.6277 10.6429 13.3571 8.3723 13.3571 5.57143C13.3571 2.77056 15.6277 0.5 18.4285 0.5Z" stroke="#006398" stroke-opacity="0.2"/>
<path d="M4.43143 13.56C4.90286 12.6257 6.24 12.6257 6.70286 13.56L8.74286 17.64L10.9971 22.1571C11.4171 23.0057 10.8086 24 9.85714 24H1.26857C0.325713 24 -0.29143 23.0057 0.12857 22.1571L2.38286 17.64L4.42286 13.56H4.43143Z" fill="#FFC542"/>
<path d="M2.83024 17.8632L4.73187 14.06H4.73918L4.87782 13.7852C5.1661 13.2139 5.9773 13.2217 6.25482 13.7819L6.25564 13.7836L8.29547 17.8632L8.29564 17.8636L10.549 22.3789C10.5491 22.3791 10.5492 22.3793 10.5493 22.3795C10.8061 22.8993 10.4334 23.5 9.85714 23.5H1.26857C0.698156 23.5 0.320918 22.8969 0.576325 22.3796C0.576445 22.3794 0.576565 22.3791 0.576685 22.3789L2.83007 17.8636L2.83024 17.8632Z" stroke="#7A5900" stroke-opacity="0.2"/>
<path d="M20.7686 18.4286L23.52 15.6771C24.1628 15.0343 24.1628 13.9886 23.52 13.3371C22.8771 12.6943 21.8314 12.6943 21.18 13.3371L18.4286 16.0886L15.6771 13.3371C15.0343 12.6943 13.9886 12.6943 13.3371 13.3371C12.6943 13.98 12.6943 15.0257 13.3371 15.6771L16.0886 18.4286L13.3371 21.18C12.6943 21.8228 12.6943 22.8686 13.3371 23.52C13.6628 23.8457 14.0828 24 14.5028 24C14.9228 24 15.3514 23.8371 15.6686 23.52L18.42 20.7686L21.1714 23.52C21.4971 23.8457 21.9171 24 22.3371 24C22.7571 24 23.1857 23.8371 23.5028 23.52C24.1457 22.8771 24.1457 21.8314 23.5028 21.18L20.7514 18.4286H20.7686Z" fill="#EB6F6E"/>
<path d="M23.1664 15.3236L20.5614 17.9286H19.5443L20.3979 18.7821L23.147 21.5312C23.1473 21.5316 23.1477 21.5319 23.1481 21.5323C23.5989 21.9904 23.5952 22.7205 23.1493 23.1664C22.9307 23.3851 22.6314 23.5 22.3371 23.5C22.0408 23.5 21.7508 23.3922 21.525 23.1664L18.7735 20.415L18.42 20.0614L18.0664 20.415L15.315 23.1664C15.0964 23.3851 14.7971 23.5 14.5028 23.5C14.207 23.5 13.9175 23.3926 13.6918 23.1676C13.241 22.7095 13.2448 21.9795 13.6907 21.5335L16.4421 18.7821L16.7957 18.4286L16.4421 18.075L13.6919 15.3248C13.2414 14.8672 13.2447 14.1379 13.6895 13.6918C14.1476 13.241 14.8776 13.2447 15.3236 13.6907L18.075 16.4421L18.4286 16.7957L18.7821 16.4421L21.5312 13.693C21.5316 13.6926 21.5319 13.6923 21.5323 13.6919C21.99 13.2414 22.7192 13.2447 23.1653 13.6895C23.6161 14.1476 23.6123 14.8777 23.1664 15.3236Z" stroke="#A43A3C" stroke-opacity="0.2"/>
</g>
<defs>
<clipPath id="clip0_79_37761">
<rect width="24" height="24" fill="white"/>
</clipPath>
</defs>
</svg>
